<?xml version="1.0" encoding="UTF-8"?>
<!DOCTYPE svg PUBLIC "-//W3C//DTD SVG 1.1//EN" "http://www.w3.org/Graphics/SVG/1.1/DTD/svg11.dtd">
<!-- Creator: CorelDRAW -->
<svg xmlns="http://www.w3.org/2000/svg" xml:space="preserve" width="297mm" height="210mm" version="1.1" style="shape-rendering:geometricPrecision; text-rendering:geometricPrecision; image-rendering:optimizeQuality; fill-rule:evenodd; clip-rule:evenodd"
viewBox="0 0 29700 21000"
 xmlns:xlink="http://www.w3.org/1999/xlink"
 xmlns:xodm="http://www.corel.com/coreldraw/odm/2003">
 <defs>
  <style type="text/css">
   <![CDATA[
    .fil1 {fill:#23908A}
    .fil0 {fill:#9DA7B0}
    .fil2 {fill:#23908A;fill-rule:nonzero}
    .fil3 {fill:#9DA7B0;fill-rule:nonzero}
   ]]>
  </style>
 </defs>
 <g id="Camada_x0020_1">
  <metadata id="CorelCorpID_0Corel-Layer"/>
  <g id="_2745829953392">
   <path class="fil0" d="M19078.44 4419.53l5284.97 0c343.19,0 623.92,280.72 623.92,623.92l0 3149.56c0,343.2 -280.73,623.92 -623.92,623.92l-1534.84 0 0 -543.6 1399.99 0c167.46,0 304.63,-137.17 304.63,-304.63l0 -2700.82c0,-167.47 -137.06,-304.64 -304.63,-304.64l-5150.12 0 0 -543.71z"/>
   <path class="fil0" d="M21263.2 6609.69l0 5284.98c0,343.19 -280.72,623.91 -623.92,623.91l-3149.56 0c-343.2,0 -623.92,-280.72 -623.92,-623.91l0 -1534.85 543.6 0 0 1399.99c0,167.47 137.17,304.63 304.63,304.63l2700.83 0c167.46,0 304.63,-137.05 304.63,-304.63l0 -5150.12 543.71 0z"/>
   <path class="fil1" d="M18964.74 8817.04l-5284.97 0c-343.2,0 -623.92,-280.72 -623.92,-623.92l0 -3149.56c0,-343.19 280.72,-623.92 623.92,-623.92l1534.84 0 0 543.6 -1399.99 0c-167.47,0 -304.63,137.17 -304.63,304.64l0 2700.82c0,167.46 137.05,304.63 304.63,304.63l5150.12 0 0 543.71z"/>
   <path class="fil1" d="M16865.69 6533.01l0 -5284.97c0,-343.19 280.72,-623.92 623.92,-623.92l3149.56 0c343.2,0 623.92,280.73 623.92,623.92l0 1534.84 -543.6 0 0 -1399.99c0,-167.46 -137.17,-304.63 -304.63,-304.63l-2700.83 0c-167.46,0 -304.63,137.06 -304.63,304.63l0 5150.12 -543.71 0z"/>
   <path class="fil0" d="M16865.69 3356.67c-2075.14,-808.02 -3355.7,-78.55 -4359.18,1009.2 -1869.22,-396.18 -3918.14,395.42 -4045.61,2925.36 -19.17,382.42 -301.88,455.58 -571.15,517.61 -3341.38,769.46 -1515.01,4140.58 0,4140.58l9247.85 0 805.05 568.28 -10199.32 0c-2212.97,0 -4105,-4346.72 -127.58,-5262.6 31.51,-7.27 88.25,-19.17 133.42,-33.06 145.65,-2495.01 2087.15,-3817.77 4413.05,-3469.29 1341.16,-1325.51 2843.17,-1653.61 4703.47,-948.38l0 552.3z"/>
  </g>
  <path class="fil2" d="M2558.22 17268.72c336.95,0 612.97,-106.25 828.1,-318.75l237.15 220.95c-132.18,120.74 -290.94,217.94 -476.26,291.59 -185.3,73.65 -381.64,110.48 -588.99,110.48 -388.78,0 -717.95,-126.78 -987.5,-380.33 -269.55,-253.56 -404.33,-574.73 -404.33,-963.51 0,-381.54 134.13,-701.5 402.39,-959.88 268.25,-258.39 611.03,-387.58 1028.31,-387.58 388.78,0 708.88,119.54 960.29,358.6l-237.16 220.95c-106.26,-91.76 -214.47,-160.58 -324.62,-206.46 -110.16,-45.88 -244.29,-68.82 -402.39,-68.82 -311.03,0 -569.56,99.61 -775.61,298.83 -206.05,199.22 -309.08,446.13 -309.08,740.74 0,294.6 101.73,542.12 305.19,742.55 203.46,200.43 451.63,300.64 744.51,300.64z"/>
  <polygon id="_1" class="fil2" points="6440.73,17239.75 6440.73,17544.01 4835.07,17544.01 4835.07,14910.67 5169.42,14910.67 5169.42,17239.75 "/>
  <path id="_2" class="fil2" d="M8670.93 17572.99c-393.96,0 -726.37,-126.78 -997.21,-380.33 -270.86,-253.56 -406.28,-574.73 -406.28,-963.51 0,-381.54 133.48,-701.5 400.44,-959.88 266.97,-258.39 606.5,-387.58 1018.6,-387.58 406.92,0 741.92,127.99 1004.99,383.96 263.07,255.96 394.61,574.72 394.61,956.26 0,381.54 -134.13,702.1 -402.39,961.69 -268.25,259.59 -605.84,389.39 -1012.76,389.39zm1073.03 -1347.46c0,-297.02 -99.14,-544.54 -297.42,-742.55 -198.27,-198.02 -455.52,-297.02 -771.73,-297.02 -303.24,0 -556.6,99.61 -760.06,298.83 -203.46,199.22 -305.19,446.13 -305.19,740.74 0,294.6 101.73,542.12 305.19,742.55 203.46,200.43 456.82,300.64 760.06,300.64 303.25,0 557.25,-100.21 762.01,-300.64 204.76,-200.43 307.14,-447.95 307.14,-742.55z"/>
  <path id="_3" class="fil2" d="M11670.9 16489.95c0,108.67 12.31,207.07 36.93,295.21 24.63,88.14 64.8,169.64 120.53,244.5 55.72,74.86 134.77,133.42 237.16,175.67 102.37,42.26 224.84,63.39 367.39,63.39 279.92,0 484.67,-76.67 614.27,-230.01 129.59,-153.34 194.39,-344.71 194.39,-574.12l0 -1553.92 334.35 0 0 1568.41c0,318.76 -98.49,580.76 -295.48,786.02 -196.97,205.26 -479.48,307.89 -847.53,307.89 -360.26,0 -633.06,-96.59 -818.38,-289.78 -185.32,-193.18 -277.98,-445.53 -277.98,-757.04l0 -1615.5 334.35 0 0 1579.28z"/>
  <path id="_4" class="fil2" d="M15740.02 17544.01l-727.01 0 0 -2633.34 878.64 0c417.28,0 756.82,110.48 1018.59,331.43 261.78,220.96 392.67,529.45 392.67,925.47 0,449.16 -143.2,790.85 -429.6,1025.09 -286.4,234.23 -664.16,351.35 -1133.29,351.35zm108.86 -2329.07l-501.52 0 0 2024.81 373.22 0c178.84,0 340.18,-18.12 484.04,-54.34 143.84,-36.22 274.08,-93.57 390.72,-172.05 116.63,-78.48 206.7,-188.36 270.2,-329.62 63.49,-141.27 95.24,-309.7 95.24,-505.3 0,-311.51 -97.84,-549.97 -293.52,-715.38 -195.69,-165.42 -468.48,-248.12 -818.38,-248.12z"/>
  <polygon id="_5" class="fil2" points="21741.37,17239.75 21741.37,17544.01 20135.72,17544.01 20135.72,14910.67 20470.07,14910.67 20470.07,17239.75 "/>
  <polygon id="_6" class="fil2" points="23298.99,17544.01 22964.64,17544.01 22964.64,14910.67 23298.99,14910.67 "/>
  <polygon id="_7" class="fil2" points="25155.95,17544.01 24821.6,17544.01 24821.6,14910.67 26388.38,14910.67 26388.38,15214.94 25155.95,15214.94 25155.95,16247.26 26193.99,16247.26 26193.99,16551.53 25155.95,16551.53 "/>
  <polygon id="_8" class="fil2" points="29120.1,17239.75 29120.1,17544.01 27553.32,17544.01 27553.32,14910.67 29120.1,14910.67 29120.1,15214.94 27887.67,15214.94 27887.67,16178.44 28925.71,16178.44 28925.71,16482.71 27887.67,16482.71 27887.67,17239.75 "/>
  <path class="fil3" d="M1285.32 19917.27c0,-81.53 32.98,-146.51 98.92,-194.95 65.94,-48.44 148.93,-72.66 248.99,-72.66 127.34,0 235.35,38.85 324.02,116.54l-104.02 87.77c-70.49,-55.64 -144.4,-83.45 -221.71,-83.45 -54.57,0 -100.91,12.71 -138.99,38.12 -38.09,25.42 -57.13,60.67 -57.13,105.75 0,18.23 5.4,35.73 16.2,52.52 10.8,16.78 22.17,30.93 34.1,42.44 11.95,11.51 33.55,25.9 64.82,43.16 31.27,17.27 55.42,29.98 72.48,38.13 17.05,8.15 48.88,22.78 95.5,43.88 189.87,87.29 284.81,189.44 284.81,306.46 0,78.65 -33.55,144.59 -100.63,197.83 -67.08,53.23 -152.92,79.85 -257.51,79.85 -88.69,0 -169.13,-15.35 -241.33,-46.04 -72.19,-30.69 -129.32,-68.58 -171.39,-113.66l104.03 -87.77c47.76,41.25 95.22,72.66 142.41,94.24 47.18,21.58 103.17,32.37 167.98,32.37 59.12,0 108.3,-14.86 147.52,-44.6 39.22,-29.73 58.84,-65.7 58.84,-107.9 0,-76.74 -83.57,-150.59 -250.7,-221.57 -103.46,-44.13 -182.2,-90.17 -236.2,-138.12 -54.01,-47.96 -81.01,-104.07 -81.01,-168.34z"/>
  <polygon id="_1_0" class="fil3" points="3232.3,20586.29 3232.3,20707.15 2545.02,20707.15 2545.02,19661.17 3232.3,19661.17 3232.3,19782.03 2691.68,19782.03 2691.68,20164.74 3147.03,20164.74 3147.03,20285.59 2691.68,20285.59 2691.68,20586.29 "/>
  <path id="_2_1" class="fil3" d="M3924.09 20288.47c0,43.16 5.41,82.25 16.21,117.26 10.8,35.01 28.42,67.38 52.86,97.12 24.46,29.73 59.13,52.99 104.04,69.78 44.91,16.78 98.63,25.17 161.16,25.17 122.79,0 212.61,-30.45 269.46,-91.36 56.84,-60.9 85.26,-136.92 85.26,-228.04l0 -617.23 146.68 0 0 622.98c0,126.62 -43.21,230.69 -129.62,312.22 -86.41,81.53 -210.34,122.29 -371.78,122.29 -158.03,0 -277.7,-38.37 -358.99,-115.1 -81.29,-76.73 -121.94,-176.97 -121.94,-300.7l0 -641.69 146.66 0 0 627.3z"/>
  <path id="_3_2" class="fil3" d="M6120.07 20707.15l-146.66 0 0 -1045.98 378.61 0c118.24,0 217.72,31.65 298.44,94.96 80.72,63.31 121.09,151.07 121.09,263.29 0,114.14 -44.63,205.03 -133.88,272.65 -89.25,67.62 -198.68,101.43 -328.29,101.43l-189.31 0 0 313.65zm213.18 -925.12l-213.18 0 0 490.61 177.37 0c95.51,0 173.38,-22.78 233.65,-68.34 60.25,-45.56 90.38,-106.7 90.38,-183.44 0,-78.65 -25.86,-138.12 -77.59,-178.4 -51.74,-40.29 -121.95,-60.43 -210.63,-60.43z"/>
  <path id="_4_3" class="fil3" d="M7446.28 20707.15l-146.66 0 0 -1045.98 378.61 0c117.1,0 216.3,31.17 297.59,93.52 81.29,62.35 121.93,145.32 121.93,248.91 0,71.93 -19.33,135 -57.98,189.19 -38.66,54.2 -91.52,97.12 -158.6,128.77l267.74 376.96 -5.11 8.63 -153.49 0 -247.28 -342.42c-34.12,5.75 -69.92,8.63 -107.44,8.63l-189.31 0 0 333.79zm213.18 -925.12l-213.18 0 0 470.47 177.37 0c95.51,0 173.38,-22.3 233.65,-66.9 60.25,-44.6 90.38,-103.83 90.38,-177.69 0,-73.85 -27.29,-129.97 -81.86,-168.33 -54.57,-38.37 -123.36,-57.55 -206.36,-57.55z"/>
  <path id="_5_4" class="fil3" d="M9214.19 20718.66c-172.81,0 -318.63,-50.36 -437.44,-151.07 -118.8,-100.71 -178.21,-228.28 -178.21,-382.71 0,-151.55 58.55,-278.64 175.65,-381.27 117.12,-102.63 266.05,-153.95 446.83,-153.95 178.5,0 325.45,50.84 440.85,152.51 115.4,101.67 173.1,228.28 173.1,379.83 0,151.55 -58.84,278.88 -176.51,381.99 -117.67,103.11 -265.77,154.67 -444.27,154.67zm470.7 -535.22c0,-117.98 -43.49,-216.29 -130.46,-294.94 -86.98,-78.66 -199.82,-117.98 -338.53,-117.98 -133.02,0 -244.16,39.56 -333.41,118.69 -89.25,79.14 -133.88,177.21 -133.88,294.23 0,117.02 44.63,215.34 133.88,294.95 89.25,79.61 200.39,119.41 333.41,119.41 133.02,0 244.44,-39.8 334.27,-119.41 89.81,-79.61 134.72,-177.93 134.72,-294.95z"/>
  <polygon id="_6_5" class="fil3" points="10547.22,20707.15 10400.55,20707.15 10400.55,19649.66 10414.2,19649.66 11294.2,20422.28 11294.2,19661.17 11440.86,19661.17 11440.86,20718.66 11427.21,20718.66 10547.22,19953.24 "/>
  <polygon id="_7_6" class="fil3" points="12516.38,20707.15 12369.72,20707.15 12369.72,19782.03 11948.47,19782.03 11948.47,19661.17 12937.61,19661.17 12937.61,19782.03 12516.38,19782.03 "/>
  <path id="_8_7" class="fil3" d="M13578.24 20288.47c0,43.16 5.41,82.25 16.21,117.26 10.8,35.01 28.42,67.38 52.86,97.12 24.46,29.73 59.13,52.99 104.04,69.78 44.91,16.78 98.63,25.17 161.16,25.17 122.79,0 212.61,-30.45 269.46,-91.36 56.84,-60.9 85.27,-136.92 85.27,-228.04l0 -617.23 146.67 0 0 622.98c0,126.62 -43.21,230.69 -129.62,312.22 -86.41,81.53 -210.34,122.29 -371.78,122.29 -158.03,0 -277.7,-38.37 -358.99,-115.1 -81.29,-76.73 -121.94,-176.97 -121.94,-300.7l0 -641.69 146.66 0 0 627.3z"/>
  <path id="_9" class="fil3" d="M15457.01 19599.3l-143.26 0 204.65 -204.3 201.25 0 -262.64 204.3zm-75.04 50.36l13.64 0 547.45 1048.86 -6.83 8.63 -153.49 0 -100.62 -199.99 -590.08 0 -98.9 199.99 -150.08 0 -6.82 -8.63 545.73 -1048.86zm1.7 264.73l-231.93 471.92 468.99 0 -237.06 -471.92z"/>
  <path id="_10" class="fil3" d="M16571.74 20707.15l-146.66 0 0 -1045.98 378.61 0c117.1,0 216.3,31.17 297.59,93.52 81.29,62.35 121.94,145.32 121.94,248.91 0,71.93 -19.33,135 -57.99,189.19 -38.65,54.2 -91.52,97.12 -158.6,128.77l267.75 376.96 -5.11 8.63 -153.49 0 -247.29 -342.42c-34.11,5.75 -69.92,8.63 -107.44,8.63l-189.31 0 0 333.79zm213.19 -925.12l-213.19 0 0 470.47 177.38 0c95.5,0 173.38,-22.3 233.64,-66.9 60.25,-44.6 90.38,-103.83 90.38,-177.69 0,-73.85 -27.28,-129.97 -81.86,-168.33 -54.57,-38.37 -123.36,-57.55 -206.35,-57.55z"/>
  <polygon id="_11" class="fil3" points="17972.99,20707.15 17826.33,20707.15 17826.33,19661.17 17972.99,19661.17 "/>
  <path id="_12" class="fil3" d="M19174.71 20718.66c-172.81,0 -318.64,-50.36 -437.44,-151.07 -118.81,-100.71 -178.22,-228.28 -178.22,-382.71 0,-151.55 58.56,-278.64 175.66,-381.27 117.11,-102.63 266.05,-153.95 446.82,-153.95 178.5,0 325.45,50.84 440.86,152.51 115.39,101.67 173.09,228.28 173.09,379.83 0,151.55 -58.84,278.88 -176.51,381.99 -117.67,103.11 -265.76,154.67 -444.26,154.67zm470.7 -535.22c0,-117.98 -43.49,-216.29 -130.46,-294.94 -86.98,-78.66 -199.83,-117.98 -338.54,-117.98 -133.02,0 -244.15,39.56 -333.41,118.69 -89.24,79.14 -133.87,177.21 -133.87,294.23 0,117.02 44.63,215.34 133.87,294.95 89.26,79.61 200.39,119.41 333.41,119.41 133.02,0 244.44,-39.8 334.27,-119.41 89.81,-79.61 134.73,-177.93 134.73,-294.95z"/>
  <polygon id="_13" class="fil3" points="21087.58,20707.15 20940.91,20707.15 20940.91,19649.66 20954.56,19649.66 21834.56,20422.28 21834.56,19661.17 21981.22,19661.17 21981.22,20718.66 21967.57,20718.66 21087.58,19953.24 "/>
  <path id="_14" class="fil3" d="M23008.98 19649.66l13.64 0 547.45 1048.86 -6.82 8.63 -153.49 0 -100.63 -199.99 -590.07 0 -98.91 199.99 -150.07 0 -6.83 -8.63 545.73 -1048.86zm1.71 264.73l-231.94 471.92 468.99 0 -237.05 -471.92z"/>
  <polygon id="_15" class="fil3" points="24780.31,20707.15 24633.65,20707.15 24633.65,19649.66 24647.29,19649.66 25252.72,20203.58 25858.14,19649.66 25871.78,19649.66 25871.78,20707.15 25725.12,20707.15 25725.12,19957.56 25262.94,20383.43 25242.49,20383.43 24780.31,19957.56 "/>
  <path id="_16" class="fil3" d="M27035.97 19592.11c-36.38,0 -83.57,-14.39 -141.54,-43.16 -57.99,-28.78 -100.06,-43.16 -126.21,-43.16 -53.43,0 -91.52,23.5 -114.26,70.49l0 -120.85c30.7,-40.29 73.9,-60.43 129.61,-60.43 32.97,0 76.74,14.39 131.32,43.16 54.57,28.78 95.5,43.17 122.78,43.17 63.68,0 104.61,-23.5 122.79,-70.5l0 120.85c-23.87,40.29 -65.37,60.43 -124.49,60.43zm-136.44 57.55l13.65 0 547.45 1048.86 -6.83 8.63 -153.49 0 -100.62 -199.99 -590.08 0 -98.9 199.99 -150.08 0 -6.83 -8.63 545.73 -1048.86zm1.71 264.73l-231.93 471.92 468.99 0 -237.06 -471.92z"/>
  <path id="_17" class="fil3" d="M28433.81 20718.66c-172.81,0 -318.64,-50.36 -437.44,-151.07 -118.81,-100.71 -178.22,-228.28 -178.22,-382.71 0,-151.55 58.56,-278.64 175.66,-381.27 117.11,-102.63 266.05,-153.95 446.82,-153.95 178.5,0 325.45,50.84 440.86,152.51 115.39,101.67 173.09,228.28 173.09,379.83 0,151.55 -58.84,278.88 -176.51,381.99 -117.67,103.11 -265.76,154.67 -444.26,154.67zm470.7 -535.22c0,-117.98 -43.49,-216.29 -130.46,-294.94 -86.98,-78.66 -199.83,-117.98 -338.54,-117.98 -133.02,0 -244.15,39.56 -333.41,118.69 -89.24,79.14 -133.87,177.21 -133.87,294.23 0,117.02 44.63,215.34 133.87,294.95 89.26,79.61 200.39,119.41 333.41,119.41 133.02,0 244.44,-39.8 334.27,-119.41 89.81,-79.61 134.73,-177.93 134.73,-294.95z"/>
 </g>
</svg>
