<?xml version="1.0" standalone="no"?>
<!DOCTYPE svg PUBLIC "-//W3C//DTD SVG 20010904//EN"
 "http://www.w3.org/TR/2001/REC-SVG-20010904/DTD/svg10.dtd">
<svg version="1.0" xmlns="http://www.w3.org/2000/svg"
 width="652.000000pt" height="562.000000pt" viewBox="0 0 652.000000 562.000000"
 preserveAspectRatio="xMidYMid meet">

<g transform="translate(0.000000,562.000000) scale(0.100000,-0.100000)"
fill="#000000" stroke="none">
<path d="M3463 3950 c-38 -15 -52 -58 -53 -166 -3 -252 1 -415 9 -409 5 3 12
1 16 -5 3 -5 -1 -10 -9 -10 -9 0 -16 -7 -16 -15 0 -10 10 -15 30 -15 25 0 30
4 30 25 0 16 -6 25 -15 25 -9 0 -15 9 -14 23 0 12 3 16 6 10 18 -46 23 11 23
233 -1 136 2 250 7 254 12 12 286 18 314 8 32 -12 39 -25 39 -79 0 -25 5 -50
12 -57 9 -9 9 -12 0 -12 -7 0 -12 -7 -12 -15 0 -9 9 -15 25 -15 22 0 25 4 25
37 0 29 -3 34 -12 25 -15 -15 -28 -15 -28 -1 0 5 5 7 10 4 6 -4 10 8 11 27 1
32 1 32 10 8 6 -19 8 -12 5 28 -4 59 -23 88 -68 97 -21 5 -35 2 -48 -10 -10
-9 -27 -15 -37 -12 -14 4 -14 5 5 6 12 0 22 6 22 11 0 6 -42 10 -106 10 -67 0
-103 -4 -99 -10 3 -5 -1 -10 -9 -10 -9 0 -16 5 -16 10 0 12 -27 12 -57 0z
m385 -48 c12 -13 22 -27 22 -33 0 -5 -18 9 -40 32 -22 23 -40 44 -40 47 0 6
30 -18 58 -46z m-378 13 c-7 -9 -15 -13 -18 -10 -3 2 1 11 8 20 7 9 15 13 18
10 3 -2 -1 -11 -8 -20z m103 8 c-7 -2 -21 -2 -30 0 -10 3 -4 5 12 5 17 0 24
-2 18 -5z m-142 -50 c-12 -20 -14 -14 -5 12 4 9 9 14 11 11 3 -2 0 -13 -6 -23z
m25 -110 c-7 -7 -36 23 -36 38 0 7 9 3 21 -10 12 -12 19 -25 15 -28z"/>
<path d="M3073 3549 c-61 -18 -68 -43 -68 -229 0 -187 7 -210 67 -229 20 -6
135 -9 298 -8 l265 2 3 28 3 27 -220 0 c-182 0 -221 -2 -221 -14 0 -15 -29
-30 -39 -20 -3 3 3 12 13 20 18 13 15 14 -36 14 -70 0 -90 16 -82 66 6 40 -12
47 -22 9 -4 -14 -9 -24 -12 -21 -8 9 20 66 29 60 5 -3 9 45 9 109 0 139 2 141
100 138 l70 -2 0 30 0 31 -62 -1 c-35 0 -78 -5 -95 -10z m-15 -47 c-10 -2 -18
-8 -18 -14 0 -6 -3 -8 -6 -5 -11 10 17 38 30 30 7 -5 5 -9 -6 -11z m392 -375
c0 -2 -9 -12 -20 -22 -17 -16 -20 -16 -20 -2 0 8 8 18 18 20 9 3 18 5 20 6 1
0 2 -1 2 -2z m161 -4 c-11 -4 -11 -7 0 -14 7 -4 10 -11 6 -15 -3 -4 -14 -1
-22 6 -13 11 -13 15 -3 21 7 5 18 8 23 8 6 0 4 -3 -4 -6z"/>
<path d="M1816 2430 c-38 -12 -75 -47 -92 -87 -19 -44 -18 -69 6 -118 20 -41
43 -58 102 -75 31 -10 102 6 93 20 -3 6 0 7 8 4 18 -7 33 14 20 27 -6 6 -24 4
-47 -6 -21 -9 -50 -14 -65 -12 -31 5 -71 28 -71 40 0 4 -3 6 -7 4 -13 -8 -14
75 -2 111 18 56 97 79 159 47 32 -17 50 -4 29 21 -10 12 -14 12 -20 2 -7 -10
-9 -9 -9 5 0 9 -8 17 -17 17 -10 0 -27 2 -38 5 -11 2 -33 0 -49 -5z"/>
<path d="M2100 2290 l0 -151 83 3 c65 2 82 6 82 18 0 11 -15 16 -62 18 l-62 3
-3 127 c-3 111 -5 127 -20 130 -17 3 -18 -9 -18 -148z"/>
<path d="M2481 2430 c-45 -11 -82 -40 -103 -81 -23 -46 -22 -77 5 -123 42 -75
136 -100 210 -56 39 23 77 83 77 120 0 40 -29 89 -67 113 -46 30 -77 37 -122
27z m106 -54 c15 -12 33 -21 39 -19 6 2 11 -3 11 -11 0 -8 -3 -13 -7 -11 -4 2
-7 -16 -7 -40 0 -97 -87 -146 -170 -95 -67 41 -60 161 12 190 40 17 92 11 122
-14z m-152 -186 c3 -6 -1 -7 -9 -4 -18 7 -21 14 -7 14 6 0 13 -4 16 -10z"/>
<path d="M2794 2425 c-3 -8 -4 -59 -2 -114 3 -93 5 -103 29 -126 55 -55 155
-47 199 15 17 24 20 44 20 134 0 84 -3 106 -14 106 -21 0 -26 -23 -26 -121 0
-82 -2 -92 -25 -114 -26 -27 -55 -31 -103 -14 -37 13 -42 29 -42 152 0 80 -3
97 -15 97 -9 0 -18 -7 -21 -15z m213 -217 c-3 -8 -6 -5 -6 6 -1 11 2 17 5 13
3 -3 4 -12 1 -19z"/>
<path d="M3182 2294 l3 -149 77 0 c74 1 133 18 122 36 -3 5 1 7 8 4 19 -7 49
40 55 85 7 52 -4 93 -22 86 -8 -3 -17 0 -21 6 -4 7 -3 8 4 4 7 -4 12 -1 12 6
0 7 -16 24 -36 37 -29 20 -52 26 -120 29 l-85 5 3 -149z m118 102 c86 -9 88
-10 83 -22 -2 -6 3 -17 12 -24 19 -16 20 -82 0 -120 -18 -34 -69 -53 -129 -48
l-40 3 -1 100 c-1 105 4 143 14 127 3 -5 31 -12 61 -16z"/>
<path d="M3754 2427 c-2 -7 -3 -74 -2 -148 l3 -134 83 -3 c77 -3 82 -2 82 18
0 18 -6 20 -65 20 l-65 0 0 130 c0 110 -2 130 -15 130 -9 0 -18 -6 -21 -13z"/>
<path d="M4050 2438 c0 -2 -1 -68 -1 -148 -1 -126 1 -145 15 -148 14 -3 16 14
16 147 0 128 -2 151 -15 151 -8 0 -15 -1 -15 -2z"/>
<path d="M4237 2433 c-4 -3 -7 -69 -7 -145 0 -116 3 -140 15 -145 22 -8 23 -5
26 57 1 30 4 60 6 65 2 6 31 9 69 7 59 -3 65 -2 62 15 -3 15 -14 18 -68 19
-60 1 -65 3 -68 24 -5 28 9 100 15 83 7 -19 129 -18 136 1 3 8 3 17 0 20 -9 8
-178 8 -186 -1z m33 -145 c0 -6 -6 -5 -15 2 -8 7 -15 14 -15 16 0 2 7 1 15 -2
8 -4 15 -11 15 -16z"/>
<path d="M4542 2293 l3 -148 100 0 c86 0 100 2 103 17 3 15 -8 18 -80 20 l-83
3 0 44 1 44 69 1 c59 1 70 4 73 19 3 17 -3 18 -67 15 -78 -4 -81 -1 -76 57 5
63 5 61 14 47 12 -20 146 -12 146 8 0 12 -19 16 -103 18 l-103 3 3 -148z m38
2 c0 -8 -4 -15 -10 -15 -5 0 -7 7 -4 15 4 8 8 15 10 15 2 0 4 -7 4 -15z"/>
</g>
</svg>
